<?xml version="1.0" encoding="UTF-8" standalone="no"?>
<svg
   version="1.1"
   id="svg3977"
   height="130.00003"
   width="130"
   sodipodi:docname="logo-only-inverse-bg.svg"
   inkscape:version="1.1.1 (c3084ef, 2021-09-22)"
   xmlns:inkscape="http://www.inkscape.org/namespaces/inkscape"
   xmlns:sodipodi="http://sodipodi.sourceforge.net/DTD/sodipodi-0.dtd"
   xmlns="http://www.w3.org/2000/svg"
   xmlns:svg="http://www.w3.org/2000/svg"
   xmlns:rdf="http://www.w3.org/1999/02/22-rdf-syntax-ns#"
   xmlns:cc="http://creativecommons.org/ns#"
   xmlns:dc="http://purl.org/dc/elements/1.1/">
  <sodipodi:namedview
     id="namedview18"
     pagecolor="#ffffff"
     bordercolor="#666666"
     borderopacity="1.0"
     inkscape:pageshadow="2"
     inkscape:pageopacity="0.0"
     inkscape:pagecheckerboard="true"
     showgrid="false"
     inkscape:zoom="0.19328786"
     inkscape:cx="1275.2999"
     inkscape:cy="1239.0845"
     inkscape:window-width="1920"
     inkscape:window-height="1027"
     inkscape:window-x="0"
     inkscape:window-y="25"
     inkscape:window-maximized="0"
     inkscape:current-layer="layer1" />
  <defs
     id="defs3979" />
  <metadata
     id="metadata3982">
    <rdf:RDF>
      <cc:Work
         rdf:about="">
        <dc:format>image/svg+xml</dc:format>
        <dc:type
           rdf:resource="http://purl.org/dc/dcmitype/StillImage" />
      </cc:Work>
    </rdf:RDF>
  </metadata>
  <g
     transform="translate(-880,-1310.9336)"
     id="layer1">
    <rect
       y="1310.9336"
       x="880"
       height="130.00003"
       width="130"
       id="rect3821"
       style="opacity:1;fill:none;fill-opacity:1;fill-rule:nonzero;stroke:none;stroke-width:4;stroke-linecap:round;stroke-linejoin:miter;stroke-miterlimit:4;stroke-dasharray:none;stroke-dashoffset:0;stroke-opacity:1" />
    <rect
       ry="3.8671885"
       y="1290.9335"
       x="500.00006"
       height="149.99997"
       width="524.99988"
       id="rect3156"
       style="display:inline;fill:none;stroke:none" />
    <g
       transform="translate(3.125025)"
       id="g4797">
      <g
         id="g2016"
         transform="matrix(1.2673539,0,0,1.2673539,-249.27924,-371.34693)">
        <path
           style="display:inline;fill:#bd1550;fill-opacity:1;stroke:none;stroke-opacity:1"
           d="m 941.74705,1329.9369 c -22.29428,0 -40.7987,16.2158 -44.37305,37.4942 h -1.55859 c -1.55813,0 -2.8125,1.2543 -2.8125,2.8125 v 9.375 c 0,1.5581 1.25437,2.8125 2.8125,2.8125 h 1.87499 c 1.55813,0 2.8125,-1.2544 2.8125,-2.8125 v -5.9062 c 0.64735,-22.2236 18.86387,-40.043 41.24415,-40.043 22.78969,0 41.26756,18.4778 41.26756,41.2676 0,19.7165 -13.8327,36.2017 -32.32031,40.289 -1.19949,-3.7953 -4.74943,-6.5449 -8.94139,-6.5449 -5.17767,0 -9.37501,4.1973 -9.37501,9.375 0,5.1777 4.19734,9.375 9.37501,9.375 4.8701,0 8.87562,-3.7169 9.33397,-8.4668 20.37078,-4.2996 35.66016,-22.3768 35.66016,-44.0273 0,-24.8528 -20.14724,-45.0001 -44.99999,-45.0001 z"
           id="path3149" />
        <path
           style="display:inline;fill:#bd1550;fill-opacity:1;stroke:none;stroke-opacity:1"
           d="m 941.75291,1337.4335 c -20.71068,0 -37.5,16.7893 -37.5,37.5001 0,17.249 11.65165,31.7715 27.50976,36.1464 2.20351,-3.1487 5.85545,-5.209 9.99024,-5.209 4.13478,0 7.78671,2.0603 9.99022,5.209 15.85811,-4.3749 27.50977,-18.8974 27.50977,-36.1464 0,-20.7108 -16.78933,-37.5001 -37.49999,-37.5001 z m 0,18.75 c 10.35533,0 18.74999,8.3947 18.74999,18.7501 0,10.3552 -8.39466,18.7499 -18.74999,18.7499 -10.35536,0 -18.75,-8.3947 -18.75,-18.7499 0,-10.3554 8.39464,-18.7501 18.75,-18.7501 z"
           id="path3151" />
      </g>
    </g>
  </g>
</svg>
